<?xml version="1.0" encoding="UTF-8" standalone="no"?>
<svg
   id="Layer_1"
   viewBox="0 0 24 24"
   version="1.1"
   sodipodi:docname="cachy-update-blue.svg"
   inkscape:version="1.4.3 (0d15f75042, 2025-12-25)"
   xmlns:inkscape="http://www.inkscape.org/namespaces/inkscape"
   xmlns:sodipodi="http://sodipodi.sourceforge.net/DTD/sodipodi-0.dtd"
   xmlns="http://www.w3.org/2000/svg"
   xmlns:svg="http://www.w3.org/2000/svg">
  <sodipodi:namedview
     id="namedview26"
     pagecolor="#ffffff"
     bordercolor="#000000"
     borderopacity="0.25"
     inkscape:showpageshadow="2"
     inkscape:pageopacity="0.0"
     inkscape:pagecheckerboard="0"
     inkscape:deskcolor="#d1d1d1"
     inkscape:zoom="32"
     inkscape:cx="8.65625"
     inkscape:cy="13.65625"
     inkscape:window-width="1705"
     inkscape:window-height="765"
     inkscape:window-x="0"
     inkscape:window-y="0"
     inkscape:window-maximized="1"
     inkscape:current-layer="Layer_1" />
  <defs
     id="defs22">
    <linearGradient
       id="linear-gradient"
       x1="1000.5343"
       x2="995.5818"
       y1="-1390.0707"
       y2="-1399.4018"
       gradientTransform="matrix(.5484 0 0 -.5484 -537.1039 -761.0426)"
       gradientUnits="userSpaceOnUse">
      <stop
         offset=".3352"
         stop-color="#020202"
         id="stop1" />
      <stop
         offset=".8098"
         stop-color="#020202"
         stop-opacity="0"
         id="stop2" />
    </linearGradient>
    <linearGradient
       id="linear-gradient1"
       x1="1015.3518"
       x2="1007.991"
       y1="-1423.6914"
       y2="-1410.3158"
       gradientTransform="matrix(.5484 0 0 -.5484 -541.3418 -772.6634)"
       gradientUnits="userSpaceOnUse">
      <stop
         offset="0.0665"
         stop-color="#020202"
         id="stop3"
         style="stop-color:#030303;stop-opacity:1;" />
      <stop
         offset=".4109"
         stop-color="#020202"
         stop-opacity="0"
         id="stop4" />
    </linearGradient>
    <linearGradient
       id="linear-gradient2"
       x1="1002.815"
       x2="986.8938"
       y1="-1401.3331"
       y2="-1401.3331"
       gradientTransform="matrix(.5484 0 0 -.5484 -537.1039 -761.0426)"
       gradientUnits="userSpaceOnUse">
      <stop
         offset=".4827"
         stop-color="#020202"
         id="stop5" />
      <stop
         offset=".6928"
         stop-color="#020202"
         stop-opacity="0"
         id="stop6" />
    </linearGradient>
    <linearGradient
       id="linear-gradient3"
       x1="988.1104"
       x2="994.9092"
       y1="-1420.8641"
       y2="-1420.8559"
       gradientTransform="matrix(.5484 0 0 -.5484 -537.1039 -761.0426)"
       gradientUnits="userSpaceOnUse">
      <stop
         offset=".3268"
         stop-color="#020202"
         id="stop7" />
      <stop
         offset=".8194"
         stop-color="#020202"
         stop-opacity="0"
         id="stop8" />
    </linearGradient>
    <linearGradient
       id="linear-gradient4"
       x1="990.9435"
       x2="988.0155"
       y1="-1415.3901"
       y2="-1409.6522"
       gradientTransform="matrix(.5484 0 0 -.5484 -537.1039 -761.0426)"
       gradientUnits="userSpaceOnUse">
      <stop
         offset=".5023"
         stop-color="#020202"
         id="stop9" />
      <stop
         offset=".7545"
         stop-color="#020202"
         stop-opacity="0"
         id="stop10" />
    </linearGradient>
    <linearGradient
       id="linear-gradient5"
       x1="997.8173"
       x2="987.0303"
       y1="-1419.786"
       y2="-1400.0646"
       gradientTransform="matrix(.5484 0 0 -.5484 -537.1039 -761.0426)"
       gradientUnits="userSpaceOnUse">
      <stop
         offset=".5593"
         stop-color="#020202"
         id="stop11" />
      <stop
         offset=".7624"
         stop-color="#020202"
         stop-opacity="0"
         id="stop12" />
    </linearGradient>
    <linearGradient
       id="linear-gradient6"
       x1="997.0375"
       x2="989.7095"
       y1="-1396.3917"
       y2="-1420.192"
       gradientTransform="matrix(.5484 0 0 -.5484 -537.1039 -761.0426)"
       gradientUnits="userSpaceOnUse">
      <stop
         offset=".6182"
         stop-color="#020202"
         id="stop13" />
      <stop
         offset=".8324"
         stop-color="#020202"
         stop-opacity="0"
         id="stop14" />
    </linearGradient>
    <linearGradient
       id="linear-gradient7"
       x1="995.9376"
       x2="999.5122"
       y1="-1422.2953"
       y2="-1415.8466"
       gradientTransform="matrix(.5484 0 0 -.5484 -537.1039 -761.0426)"
       gradientUnits="userSpaceOnUse">
      <stop
         offset=".422"
         stop-color="#020202"
         id="stop15" />
      <stop
         offset=".7868"
         stop-color="#020202"
         stop-opacity="0"
         id="stop16" />
    </linearGradient>
    <linearGradient
       id="linear-gradient8"
       x1="17"
       x2="17"
       y1="18.4646"
       y2="11.3075"
       gradientUnits="userSpaceOnUse">
      <stop
         offset="0.19760001"
         stop-color="#0fc"
         id="stop17"
         style="stop-color:#3388ff;stop-opacity:1;" />
      <stop
         offset="0.27039999"
         stop-color="#00f8c6"
         stop-opacity=".9471"
         id="stop18"
         style="stop-color:#2e85ff;stop-opacity:0.94999999;" />
      <stop
         offset="0.40669999"
         stop-color="#00e6b8"
         stop-opacity=".8074"
         id="stop19"
         style="stop-color:#1a79ff;stop-opacity:0.81;" />
      <stop
         offset="0.59189999"
         stop-color="#00c9a1"
         stop-opacity=".5812"
         id="stop20"
         style="stop-color:#0068fa;stop-opacity:0.57999998;" />
      <stop
         offset="0.8161"
         stop-color="#00a281"
         stop-opacity=".273"
         id="stop21"
         style="stop-color:#005ad6;stop-opacity:0.27000001;" />
      <stop
         offset="1"
         stop-color="#008066"
         stop-opacity="0"
         id="stop22"
         style="stop-color:#00204d;stop-opacity:0;" />
    </linearGradient>
    <style
       id="style22">.st8{fill:#0a8}.st9{fill:#0cf}</style>
  </defs>
  <path
     d="M11.0709 16.9199c-.0383-.247-.056-.492-.0637-.7357H9.7639l-2.4541-4.2505 2.4203-4.1921h5.8087L18.2763 3H7.0829L2 11.8039 7.3093 21h6.3864c-1.3604-.8995-2.355-2.3416-2.6248-4.0801"
     class="st9"
     id="path22" />
  <path
     id="path6337"
     d="m7.0829 3 5.567 3.1216L18.2764 3z"
     class="st8"
     style="fill:#3388ff;fill-opacity:1" />
  <path
     id="path5111"
     fill="url(#linear-gradient)"
     d="M12.6499 6.1216 7.0829 3l2.6472 4.7415z" />
  <path
     id="path8399-8"
     fill="url(#linear-gradient1)"
     d="M7.0829 3h11.1934l-2.7375 4.7415H9.7301z" />
  <path
     id="path8399"
     d="M9.7301 7.7415 18.2764 3l-2.7375 4.7415H9.7302Z"
     class="st8"
     style="fill:#3388ff;fill-opacity:1" />
  <path
     d="M17 11c-2.7614 0-5 2.2386-5 5s2.2386 5 5 5 5-2.2386 5-5-2.2386-5-5-5m.1108 7.3437-.6561.6561q-.1352.1353-.3283.1354c-.1931.0001-.2381-.0453-.3282-.1354l-.6561-.6561-1.7471-1.747q-.135-.135-.1351-.328c-.0001-.193.0451-.2381.1351-.3282l.6564-.6564q.135-.1351.3282-.1351c.1932 0 .2378.045.328.1351l1.4189 1.4237 3.1658-3.1706q.135-.1351.3282-.1351c.1932 0 .2381.045.3283.1351l.6561.6561q.135.135.1351.3282c.0001.1932-.0451.2381-.1351.3283z"
     class="st9"
     id="path23"
     style="fill:#3388ff;fill-opacity:1" />
  <path
     id="path8568"
     d="m2 11.8039 5.2366-2.752.0732 2.8817z"
     class="st8"
     style="fill:#3388ff;fill-opacity:1" />
  <path
     id="path8467"
     d="M9.7301 7.7415 7.0829 3l.2268 8.9337z"
     class="st8"
     style="fill:#3388ff;fill-opacity:1" />
  <path
     id="path11629"
     fill="url(#linear-gradient2)"
     d="M7.0829 3 2 11.8039l5.3098.1298z" />
  <path
     id="path12053"
     d="m7.3096 15.3497-4.0593-1.3802L7.3093 21z"
     class="st8"
     style="fill:#3388ff;fill-opacity:1" />
  <path
     id="path13729"
     fill="url(#linear-gradient3)"
     d="M7.3098 15.3497 7.3094 21l2.4544-4.8158-2.4541-.8345Z" />
  <path
     id="path12347"
     fill="url(#linear-gradient4)"
     d="m3.2503 13.9695 4.0594-2.0358-5.3098-.1298z" />
  <path
     id="path13027"
     d="m3.2503 13.9695 6.5135 2.2147-2.454-4.2505z"
     class="st8"
     style="fill:#3388ff;fill-opacity:1" />
  <path
     id="path11882"
     fill="url(#linear-gradient5)"
     d="m2 11.8039 5.2366-2.752L7.0829 3z" />
  <path
     id="path13350"
     fill="url(#linear-gradient6)"
     d="m9.7638 16.1842-6.5135-2.2147L7.3093 21z" />
  <path
     fill="url(#linear-gradient7)"
     d="M11.0072 16.1842H9.7639l1.3072.7363-.0001-.0006c-.0383-.247-.056-.492-.0637-.7357Z"
     id="path24" />
  <path
     d="m11.071 16.9205-1.3072-.7363L7.3093 21h6.3864c-1.3602-.8994-2.3549-2.3412-2.6247-4.0795"
     class="st8"
     id="path25"
     style="fill:#3388ff;fill-opacity:1" />
  <path
     fill="url(#linear-gradient8)"
     d="M17 11c-2.7614 0-5 2.2386-5 5s2.2386 5 5 5 5-2.2386 5-5-2.2386-5-5-5m.1108 7.3437-.6561.6561q-.1352.1353-.3283.1354c-.1931.0001-.2381-.0453-.3282-.1354l-.6561-.6561-1.7471-1.747q-.135-.135-.1351-.328c-.0001-.193.0451-.2381.1351-.3282l.6564-.6564q.135-.1351.3282-.1351c.1932 0 .2378.045.328.1351l1.4189 1.4237 3.1658-3.1706q.135-.1351.3282-.1351c.1932 0 .2381.045.3283.1351l.6561.6561q.135.135.1351.3282c.0001.1932-.0451.2381-.1351.3283z"
     id="path26" />
</svg>
